<svg width="28" height="28" viewBox="0 0 28 28" fill="none" xmlns="http://www.w3.org/2000/svg">
<path d="M19.75 13H15V8.25C15 8.1125 14.8875 8 14.75 8H13.25C13.1125 8 13 8.1125 13 8.25V13H8.25C8.1125 13 8 13.1125 8 13.25V14.75C8 14.8875 8.1125 15 8.25 15H13V19.75C13 19.8875 13.1125 20 13.25 20H14.75C14.8875 20 15 19.8875 15 19.75V15H19.75C19.8875 15 20 14.8875 20 14.75V13.25C20 13.1125 19.8875 13 19.75 13Z" fill="black" fill-opacity="0.8"/>
<path d="M14 0C6.26875 0 0 6.26875 0 14C0 21.7313 6.26875 28 14 28C21.7313 28 28 21.7313 28 14C28 6.26875 21.7313 0 14 0ZM14 25.625C7.58125 25.625 2.375 20.4188 2.375 14C2.375 7.58125 7.58125 2.375 14 2.375C20.4188 2.375 25.625 7.58125 25.625 14C25.625 20.4188 20.4188 25.625 14 25.625Z" fill="#E4E4E4" fill-opacity="0.8"/>
</svg>
