<svg width="91" height="53" viewBox="0 0 91 53" fill="none" xmlns="http://www.w3.org/2000/svg">
<path d="M57.8679 19.0737C57.8679 22.4323 57.8406 25.7706 57.8843 29.1083C57.8974 30.1223 57.6271 30.5091 56.7247 30.4633C55.3361 30.3935 53.9426 30.4254 52.5518 30.4513C51.9317 30.4633 51.6352 30.2207 51.6726 29.4617C51.7092 28.7157 51.6352 27.9614 51.6906 27.2185C51.7543 26.3676 51.4652 26.0957 50.7453 26.1067C48.4576 26.1417 46.1696 26.1187 43.8818 26.1187C41.5009 26.1187 39.1203 26.1423 36.7399 26.1064C35.9971 26.0951 35.6533 26.359 35.7038 27.2622C35.7475 28.0422 35.6981 28.829 35.7038 29.6127C35.7076 30.1922 35.4778 30.4482 34.9714 30.444C33.395 30.4314 31.817 30.4701 30.2434 30.4058C30.0771 30.3534 29.9274 30.2612 29.8087 30.1379C29.6899 30.0147 29.606 29.8644 29.5648 29.7014C29.52 26.1833 29.5345 22.664 29.5345 19.0425C29.3893 18.9925 29.2362 18.9664 29.0819 18.9656C28.5389 19.0043 28.3714 18.6719 28.3817 18.1196C28.3864 17.8704 28.3763 17.6223 28.3757 17.3716C28.3689 15.2098 28.3719 15.2412 30.2265 15.0101C30.5148 14.974 30.9097 14.5612 31.0045 14.2286C31.652 11.9271 32.2617 9.60988 32.8195 7.27698C33.0337 6.38026 33.3778 5.98241 34.2291 6.03659C35.5237 6.1193 36.8254 6.02611 38.1236 6.07009C38.7836 6.0926 39.0027 5.78767 38.9743 5.06762C38.9448 4.32113 38.9801 3.5715 38.9743 2.82319C38.9705 2.24291 39.2017 1.99321 39.7087 1.99478C42.4294 2.00508 45.1502 2.00446 47.8711 1.99294C48.4098 1.99033 48.6727 2.21072 48.6489 2.8669C48.6232 3.57805 48.6924 4.29705 48.6336 5.00297C48.5595 5.88687 48.8954 6.09941 49.5953 6.07166C50.8303 6.02272 52.0694 6.09783 53.3045 6.04339C53.9877 6.01329 54.3006 6.31796 54.4832 7.05502C55.0595 9.38452 55.707 11.6899 56.2746 14.0215C56.4659 14.8125 56.8023 15.0782 57.5134 15.0648C59.5905 15.0266 59.3601 14.8235 59.3718 17.1431C59.3773 18.7182 59.3707 18.7182 57.8679 19.0737ZM35.7754 20.268H51.5269C51.457 19.8974 51.4176 19.5919 51.3411 19.2995C50.785 17.1889 50.1867 15.0921 49.6765 12.9672C49.4772 12.1359 49.163 11.8459 48.398 11.8635C45.8017 11.9229 43.2054 11.886 40.6092 11.886C38.0369 11.886 38.0328 11.8847 37.275 14.6767C36.7781 16.5007 36.2949 18.3288 35.7754 20.268Z" fill="#1B2074"/>
<path d="M18.2615 10.5992C17.2499 10.5791 16.2389 10.6621 15.2457 10.8468C14.5439 10.9739 13.9069 11.3227 13.4365 11.8373C12.9541 12.436 12.6503 13.1488 12.5573 13.8998C12.3907 15.0362 12.3162 16.1833 12.3343 17.3307V19.9049C12.3139 21.0435 12.4004 22.1815 12.5925 23.3052C12.7066 24.0593 13.0272 24.7711 13.5217 25.368C14.0035 25.8813 14.6439 26.2337 15.3495 26.3739C16.3293 26.5709 17.3294 26.6598 18.3303 26.6388H21.0001C21.5174 26.6388 22.0806 26.6334 22.6896 26.6228C22.9522 26.6181 23.2308 26.6121 23.5256 26.605C23.6756 26.6014 23.8245 26.63 23.9614 26.6886C24.0984 26.7473 24.2199 26.8346 24.317 26.944C24.4142 27.0535 24.4846 27.1824 24.523 27.3213C24.5614 27.4602 24.5669 27.6055 24.539 27.7467L24.1673 29.6113C24.1235 29.8268 24.0044 30.0215 23.8296 30.1635C23.6548 30.3055 23.4347 30.3862 23.2056 30.3924C22.1941 30.4199 21.3098 30.4337 20.5527 30.4337H18.1918C16.4846 30.4706 14.7804 30.2817 13.1271 29.8726C11.8879 29.5635 10.7575 28.9426 9.85305 28.0744C8.97576 27.1597 8.36923 26.0374 8.09605 24.8233C7.71983 23.1987 7.54607 21.5371 7.57843 19.8733V17.331C7.54327 15.6547 7.72847 13.9809 8.12966 12.349C8.42569 11.1323 9.04991 10.0112 9.93995 9.09789C10.8437 8.23609 11.975 7.62569 13.2129 7.33193C14.8306 6.94955 16.4937 6.77223 18.1595 6.80451H20.7954C21.508 6.80451 22.3709 6.81612 23.3841 6.83932C23.5298 6.84283 23.673 6.87665 23.8037 6.93845C23.9345 7.00025 24.0496 7.08854 24.1412 7.19721C24.2327 7.30587 24.2985 7.43231 24.3339 7.56776C24.3693 7.7032 24.3736 7.8444 24.3463 7.98157L23.97 9.86453C23.9261 10.0877 23.8008 10.2886 23.6167 10.4316C23.4325 10.5746 23.2013 10.6503 22.9643 10.6453C22.3968 10.6334 21.7773 10.6236 21.1059 10.6157C20.0823 10.6047 19.1342 10.5992 18.2615 10.5992Z" fill="#1B2074"/>
<path d="M62.5195 7.84279C62.5195 7.56734 62.6338 7.30317 62.8371 7.1084C63.0405 6.91362 63.3163 6.8042 63.6039 6.8042H73.1566C75.7453 6.8042 77.6225 7.27996 78.7884 8.23148C79.9543 9.18299 80.5373 10.6652 80.5375 12.6782V13.0103C80.5753 14.0823 80.3061 15.1438 79.7591 16.0798C79.5271 16.45 79.2347 16.7822 78.8931 17.0639C78.7686 17.1649 78.6698 17.2917 78.6043 17.4348C78.5388 17.5779 78.5084 17.7334 78.5152 17.8895C78.5221 18.0456 78.5661 18.1981 78.6439 18.3354C78.7217 18.4727 78.8312 18.5912 78.9641 18.6818C79.4343 18.9871 79.8496 19.3635 80.1939 19.7963C80.9072 20.6927 81.2685 21.9041 81.2685 23.43V23.9624C81.2685 26.2406 80.5522 27.889 79.1196 28.9077C77.687 29.9264 75.6773 30.4351 73.0905 30.4337H63.6039C63.3164 30.4336 63.0406 30.3242 62.8372 30.1294C62.6339 29.9347 62.5196 29.6705 62.5195 29.3951V7.84279ZM67.1275 11.4606V15.3561C67.1275 15.4925 67.1555 15.6276 67.21 15.7536C67.2645 15.8796 67.3443 15.9942 67.445 16.0906C67.5457 16.1871 67.6653 16.2636 67.7969 16.3158C67.9285 16.3681 68.0695 16.3949 68.2119 16.3949H72.3614C73.6752 16.3949 74.5992 16.1627 75.1334 15.6982C75.6636 15.2333 75.9287 14.4811 75.9287 13.4414V13.0106C75.9287 12.08 75.6805 11.416 75.1842 11.0185C74.6879 10.621 73.8503 10.4221 72.6715 10.4217H68.2119C68.0695 10.4217 67.9285 10.4486 67.7969 10.5008C67.6653 10.553 67.5457 10.6295 67.445 10.726C67.3443 10.8225 67.2645 10.937 67.21 11.063C67.1555 11.1891 67.1275 11.3242 67.1275 11.4606V11.4606ZM67.1275 25.7778C67.1275 26.0533 67.2418 26.3175 67.4451 26.5122C67.6485 26.707 67.9243 26.8164 68.2119 26.8164H72.879C74.2409 26.8164 75.1997 26.5896 75.7554 26.1359C76.308 25.6833 76.5873 24.8583 76.5873 23.6632V23.2324C76.5873 21.9935 76.2867 21.1306 75.6854 20.6438C75.0842 20.1569 74.0679 19.9134 72.6366 19.9133H68.2119C68.0695 19.9132 67.9285 19.9401 67.7969 19.9922C67.6653 20.0444 67.5458 20.1209 67.4451 20.2174C67.3444 20.3138 67.2645 20.4283 67.21 20.5544C67.1555 20.6804 67.1275 20.8154 67.1275 20.9518V25.7778Z" fill="#1B2074"/>
<path d="M8.80469 33.3945H14.0134C15.28 33.3945 16.1991 33.6275 16.7706 34.0934C17.3422 34.5593 17.6278 35.2851 17.6274 36.2708V36.4334C17.6456 36.9584 17.5133 37.4782 17.2448 37.9363C16.9652 38.3621 16.544 38.6855 16.0491 38.8542C16.6091 38.9988 17.1039 39.3156 17.4574 39.7559C17.8338 40.277 18.0188 40.903 17.9832 41.5357V41.7956C17.9832 42.9124 17.6325 43.7195 16.9311 44.217C16.2296 44.7145 15.2458 44.9636 13.9795 44.9643H8.80469V33.3945ZM11.0615 35.1657V38.0907H13.6231C14.2677 38.0907 14.7201 37.9773 14.9803 37.7504C15.1227 37.6028 15.231 37.4282 15.2982 37.2378C15.3655 37.0475 15.3901 36.8457 15.3706 36.6456V36.4334C15.3891 36.255 15.3659 36.075 15.3027 35.9063C15.2396 35.7376 15.138 35.5845 15.0054 35.4581C14.7624 35.2632 14.3524 35.1657 13.7756 35.1657H11.0615ZM11.0615 43.1931H13.8778C14.5448 43.1931 15.0141 43.082 15.2856 42.8599C15.557 42.6377 15.6929 42.2342 15.693 41.6493V41.4381C15.693 40.8316 15.546 40.4091 15.252 40.1708C14.9579 39.9324 14.4601 39.8131 13.7587 39.813H11.0615V43.1931Z" fill="#F8BB10"/>
<path d="M24.8541 45.2563C23.968 45.2793 23.0836 45.1696 22.2329 44.9312C21.6072 44.7504 21.0444 44.4107 20.6041 43.9481C20.1839 43.4727 19.8977 42.9021 19.773 42.2907C19.6099 41.5235 19.5331 40.7418 19.544 39.9589V38.3827C19.5346 37.6191 19.6086 36.8567 19.7645 36.1079C19.886 35.4986 20.1661 34.9285 20.5789 34.4505C21.0155 33.9804 21.5747 33.63 22.1993 33.4352C23.0577 33.1777 23.955 33.0595 24.8541 33.0856C25.743 33.0628 26.6302 33.1724 27.484 33.4106C28.1127 33.5901 28.6787 33.9299 29.1213 34.3937C29.5416 34.8691 29.8278 35.4397 29.9524 36.0511C30.1155 36.8183 30.1923 37.6001 30.1814 38.3829V39.9591C30.1905 40.7227 30.1166 41.485 29.9611 42.2339C29.8395 42.8433 29.5593 43.4133 29.1464 43.8913C28.7077 44.3629 28.1454 44.7135 27.5176 44.9068C26.6561 45.1638 25.756 45.2819 24.8541 45.2563V45.2563ZM24.8541 43.4199C25.3555 43.4299 25.8564 43.386 26.3476 43.289C26.6995 43.2207 27.0183 43.0438 27.2552 42.7854C27.5028 42.4754 27.6607 42.1083 27.713 41.7212C27.8083 41.1217 27.8509 40.5157 27.8403 39.9094V38.4306C27.8505 37.8298 27.8079 37.2292 27.713 36.6353C27.6595 36.2458 27.5018 35.8761 27.2552 35.5622C27.0204 35.2998 26.7011 35.1199 26.3476 35.0507C25.3603 34.8771 24.3483 34.8771 23.3611 35.0507C23.0092 35.1191 22.6904 35.296 22.4535 35.5543C22.2063 35.8638 22.0509 36.2315 22.0036 36.6185C21.9148 37.2186 21.8751 37.8244 21.885 38.4303V39.9092C21.8754 40.5096 21.9151 41.1099 22.0036 41.7044C22.0517 42.094 22.2069 42.4643 22.4535 42.7776C22.6881 43.0402 23.0075 43.2202 23.3611 43.2893C23.8521 43.3863 24.3529 43.4302 24.8541 43.4202V43.4199Z" fill="#F8BB10"/>
<path d="M37.4908 45.2563C36.6046 45.2793 35.7202 45.1697 34.8694 44.9312C34.2438 44.7505 33.6811 44.4107 33.2411 43.9481C32.8208 43.4727 32.5346 42.9021 32.4097 42.2907C32.2466 41.5235 32.1698 40.7418 32.1807 39.9589V38.3827C32.1715 37.6191 32.2455 36.8568 32.4012 36.1079C32.5227 35.4986 32.8028 34.9285 33.2157 34.4505C33.6523 33.9805 34.2115 33.6301 34.836 33.4353C35.6946 33.1777 36.5921 33.0595 37.4913 33.0856C38.3802 33.0628 39.2673 33.1725 40.121 33.4106C40.7497 33.5901 41.3156 33.93 41.7582 34.3938C42.1785 34.8692 42.4648 35.4397 42.5896 36.0511C42.7526 36.8183 42.8293 37.6001 42.8186 38.383V39.9592C42.8276 40.7227 42.7537 41.4851 42.5981 42.2339C42.4766 42.8432 42.1965 43.4133 41.7837 43.8913C41.3449 44.3628 40.7826 44.7134 40.1548 44.9068C39.2932 45.1639 38.3929 45.2819 37.4908 45.2563ZM37.4908 43.4199C37.9921 43.4299 38.493 43.386 38.9841 43.289C39.336 43.2209 39.6549 43.0439 39.8917 42.7854C40.1394 42.4755 40.2973 42.1084 40.3494 41.7212C40.4449 41.1218 40.4875 40.5157 40.4768 39.9094V38.4306C40.4871 37.8298 40.4445 37.2292 40.3494 36.6353C40.2961 36.2458 40.1384 35.8761 39.8917 35.5622C39.6564 35.3004 39.3367 35.1212 38.9832 35.0528C37.996 34.8793 36.984 34.8793 35.9967 35.0528C35.6448 35.1212 35.326 35.2981 35.0891 35.5564C34.8421 35.866 34.6868 36.2337 34.6395 36.6206C34.5507 37.2207 34.511 37.8265 34.5209 38.4324V39.9113C34.5113 40.5117 34.551 41.112 34.6395 41.7065C34.6877 42.096 34.8428 42.4663 35.0891 42.7797C35.3237 43.0423 35.6431 43.2223 35.9967 43.2914C36.4881 43.3877 36.9893 43.4309 37.4908 43.4202V43.4199Z" fill="#F8BB10"/>
<path d="M47.3988 38.3179L52.0806 33.394H54.6769L49.4023 38.8702L55.2727 44.9635H52.3022L47.3988 39.7313V44.9635H45.125V33.3946H47.3988V38.3179Z" fill="#F8BB10"/>
<path d="M59.3422 33.3945V44.9635H57.0859V33.3945H59.3422Z" fill="#F8BB10"/>
<path d="M63.2259 33.3945L69.0121 41.4219V33.3945H71.2531V44.9635H69.2854L63.5337 37.0016V44.9635H61.2773V33.3945H63.2259Z" fill="#F8BB10"/>
<path d="M82.7553 38.708V43.3387C82.7914 43.7599 82.6877 44.1813 82.4591 44.5427C82.3384 44.676 82.1881 44.7817 82.0193 44.852C81.8504 44.9223 81.6672 44.9554 81.4831 44.949C81.4494 44.949 81.28 44.9516 80.9748 44.9568C80.6696 44.962 80.3388 44.9648 79.9822 44.9649H78.4807C77.6165 44.9849 76.7537 44.8864 75.9186 44.6726C75.3048 44.515 74.7475 44.2004 74.3062 43.7625C73.8942 43.3214 73.6052 42.7878 73.4661 42.2111C73.2895 41.4787 73.2069 40.7283 73.2201 39.9767V38.3683C73.2099 37.6361 73.2894 36.9053 73.4571 36.1908C73.5925 35.6046 73.8883 35.0634 74.3141 34.6227C74.78 34.1753 75.3587 33.8508 75.994 33.6805C76.8689 33.4479 77.775 33.341 78.6827 33.3632C79.3836 33.3632 80.0143 33.3661 80.5747 33.3719C81.1351 33.3776 81.7374 33.3857 82.3815 33.396L82.0262 35.2645C81.5281 35.2539 81.0982 35.2459 80.7368 35.2404C80.3753 35.235 80.0642 35.2323 79.8035 35.2323H78.5463C78.043 35.2231 77.54 35.2639 77.0454 35.354C76.6971 35.4138 76.3767 35.5758 76.1288 35.8176C75.8866 36.0895 75.7305 36.4221 75.6789 36.7761C75.59 37.3134 75.5502 37.8571 75.56 38.401V39.9282C75.5483 40.4863 75.5941 41.0442 75.6967 41.5937C75.7561 41.9466 75.9147 42.2773 76.1556 42.5504C76.3902 42.7829 76.6969 42.9366 77.0301 42.9888C77.4922 43.0665 77.9611 43.1016 78.4302 43.0935H80.4998V40.4303H78.4466L78.8205 38.7077L82.7553 38.708Z" fill="#F8BB10"/>
<path d="M2.37144 29.3559H0.296875V0H27.8312V1.98766H2.37144V29.3559Z" fill="#F8BB10"/>
<path d="M90.9573 52.9999H63.4219V51.0122H88.8819V23.644H90.9573V52.9999Z" fill="#1B2074"/>
</svg>
