<svg width="32" height="32" viewBox="0 0 32 32" fill="none" xmlns="http://www.w3.org/2000/svg">
<path d="M13.3903 1.66498L0.368756 27.2336C0.119331 27.7233 -0.00764128 28.2747 0.000355695 28.8335C0.00835267 29.3923 0.151042 29.9392 0.41436 30.4204C0.677678 30.9015 1.05254 31.3002 1.50198 31.5772C1.95143 31.8542 2.45996 31.9999 2.97744 32H29.0226C29.54 31.9999 30.0486 31.8542 30.498 31.5772C30.9475 31.3002 31.3223 30.9015 31.5856 30.4204C31.849 29.9392 31.9916 29.3923 31.9996 28.8335C32.0076 28.2747 31.8807 27.7233 31.6312 27.2336L18.6077 1.66498C18.3506 1.16072 17.9729 0.740223 17.5141 0.447358C17.0552 0.154493 16.532 0 15.999 0C15.466 0 14.9428 0.154493 14.4839 0.447358C14.0251 0.740223 13.6474 1.16072 13.3903 1.66498ZM15.999 10.0228C16.3939 10.0228 16.7726 10.1922 17.0519 10.4938C17.3311 10.7953 17.488 11.2044 17.488 11.6309V20.2073C17.488 20.6338 17.3311 21.0428 17.0519 21.3444C16.7726 21.646 16.3939 21.8154 15.999 21.8154C15.6041 21.8154 15.2254 21.646 14.9461 21.3444C14.6669 21.0428 14.51 20.6338 14.51 20.2073V11.6309C14.51 11.2044 14.6669 10.7953 14.9461 10.4938C15.2254 10.1922 15.6041 10.0228 15.999 10.0228ZM17.488 25.0316C17.488 25.4581 17.3311 25.8671 17.0519 26.1687C16.7726 26.4703 16.3939 26.6397 15.999 26.6397C15.6041 26.6397 15.2254 26.4703 14.9461 26.1687C14.6669 25.8671 14.51 25.4581 14.51 25.0316C14.51 24.6051 14.6669 24.1961 14.9461 23.8945C15.2254 23.5929 15.6041 23.4235 15.999 23.4235C16.3939 23.4235 16.7726 23.5929 17.0519 23.8945C17.3311 24.1961 17.488 24.6051 17.488 25.0316Z" fill="#D41E21"/>
</svg>
