<svg width="40" height="40" viewBox="0 0 40 40" fill="none" xmlns="http://www.w3.org/2000/svg">
<circle opacity="0.5" cx="20" cy="20" r="20" fill="#D9D9D9"/>
<path d="M19.5001 12C20.1732 12 20.8208 12.2352 21.31 12.6575C21.7993 13.0798 22.0931 13.6572 22.1312 14.2711L22.1353 14.4074H26.3921C26.5461 14.4075 26.6945 14.4609 26.807 14.557C26.9196 14.6531 26.9881 14.7847 26.9986 14.9251C27.0091 15.0655 26.9608 15.2044 26.8636 15.3136C26.7664 15.4227 26.6274 15.4941 26.4748 15.5133L26.3921 15.5185H25.7467L24.7088 25.163C24.6568 25.6438 24.4194 26.0921 24.0391 26.4278C23.6587 26.7634 23.1601 26.9647 22.6323 26.9956L22.4896 27H16.5106C15.9815 27 15.4697 26.8281 15.0665 26.515C14.6634 26.202 14.3953 25.7682 14.31 25.2911L14.2914 25.1622L13.2527 15.5185H12.6081C12.4612 15.5185 12.3192 15.4699 12.2084 15.3817C12.0977 15.2934 12.0257 15.1715 12.0057 15.0385L12 14.963C12 14.8287 12.0532 14.699 12.1498 14.5978C12.2464 14.4967 12.3798 14.4309 12.5254 14.4126L12.6081 14.4074H16.8649C16.8649 13.7689 17.1426 13.1566 17.6367 12.7051C18.1309 12.2536 18.8012 12 19.5001 12ZM24.5247 15.5185H14.4746L15.5019 25.0533C15.5247 25.2661 15.6273 25.4651 15.7924 25.6166C15.9575 25.7681 16.1748 25.8627 16.4076 25.8844L16.5106 25.8889H22.4896C22.9761 25.8889 23.3888 25.5741 23.4828 25.1467L23.4991 25.0533L24.5239 15.5185H24.5247ZM20.919 17.5556C21.066 17.5556 21.208 17.6042 21.3187 17.6924C21.4295 17.7807 21.5015 17.9026 21.5215 18.0356L21.5271 18.1111V23.2963C21.5271 23.4371 21.4686 23.5725 21.3634 23.6754C21.2582 23.7783 21.1142 23.8408 20.9605 23.8504C20.8068 23.86 20.6548 23.8159 20.5353 23.7271C20.4157 23.6383 20.3376 23.5113 20.3166 23.3719L20.3109 23.2963V18.1111C20.3109 17.9638 20.375 17.8225 20.489 17.7183C20.6031 17.6141 20.7577 17.5556 20.919 17.5556ZM18.0812 17.5556C18.2281 17.5556 18.3701 17.6042 18.4808 17.6924C18.5916 17.7807 18.6636 17.9026 18.6836 18.0356L18.6893 18.1111V23.2963C18.6892 23.4371 18.6307 23.5725 18.5255 23.6754C18.4203 23.7783 18.2763 23.8408 18.1226 23.8504C17.9689 23.86 17.8169 23.8159 17.6974 23.7271C17.5779 23.6383 17.4997 23.5113 17.4787 23.3719L17.473 23.2963V18.1111C17.473 17.9638 17.5371 17.8225 17.6512 17.7183C17.7652 17.6141 17.9199 17.5556 18.0812 17.5556ZM19.5001 13.1111C19.144 13.1111 18.8009 13.2335 18.539 13.4538C18.277 13.6742 18.1153 13.9765 18.086 14.3007L18.0812 14.4074H20.919C20.919 14.0636 20.7695 13.7339 20.5034 13.4908C20.2373 13.2477 19.8764 13.1111 19.5001 13.1111Z" fill="#1B2074"/>
</svg>
