<svg width="40" height="40" viewBox="0 0 40 40" fill="none" xmlns="http://www.w3.org/2000/svg">
<circle opacity="0.5" cx="20" cy="20" r="20" fill="#D9D9D9"/>
<path d="M14.7319 24C14.7694 24 14.8069 23.9963 14.8444 23.9906L17.9981 23.4375C18.0356 23.43 18.0713 23.4131 18.0975 23.385L26.0456 15.4369C26.063 15.4195 26.0768 15.3989 26.0862 15.3762C26.0956 15.3536 26.1005 15.3292 26.1005 15.3047C26.1005 15.2801 26.0956 15.2558 26.0862 15.2331C26.0768 15.2105 26.063 15.1898 26.0456 15.1725L22.9294 12.0544C22.8938 12.0188 22.8469 12 22.7963 12C22.7456 12 22.6988 12.0188 22.6631 12.0544L14.715 20.0025C14.6869 20.0306 14.67 20.0644 14.6625 20.1019L14.1094 23.2556C14.0911 23.3561 14.0977 23.4594 14.1284 23.5568C14.1591 23.6542 14.2131 23.7426 14.2856 23.8144C14.4094 23.9344 14.565 24 14.7319 24ZM15.9956 20.73L22.7963 13.9313L24.1706 15.3056L17.37 22.1044L15.7031 22.3988L15.9956 20.73ZM26.4 25.575H12.6C12.2681 25.575 12 25.8431 12 26.175V26.85C12 26.9325 12.0675 27 12.15 27H26.85C26.9325 27 27 26.9325 27 26.85V26.175C27 25.8431 26.7319 25.575 26.4 25.575Z" fill="#1B2074"/>
</svg>
