<svg width="38" height="38" viewBox="0 0 38 38" fill="none" xmlns="http://www.w3.org/2000/svg">
<path d="M13.5717 38C10.7666 38 8.48242 35.796 8.48242 33.0862C8.48242 32.5437 8.93842 32.1035 9.50028 32.1035C10.0621 32.1035 10.5181 32.5437 10.5181 33.0862C10.5181 34.7125 11.8889 36.0345 13.5717 36.0345C15.2546 36.0345 16.6253 34.7125 16.6253 33.0862C16.6253 32.5437 17.0813 32.1035 17.6431 32.1035C18.205 32.1035 18.661 32.5437 18.661 33.0862C18.661 35.796 16.377 38 13.5717 38Z" fill="#F8BB10"/>
<path d="M24.7678 34.069H2.37492C1.06532 34.069 0 33.0404 0 31.7759C0 31.1048 0.302673 30.4695 0.830488 30.0331C0.864532 30.0043 0.901062 29.9781 0.939083 29.9544C2.93131 28.2758 4.07143 25.8609 4.07143 23.3109V19.6551C4.07143 14.5973 8.3342 10.4827 13.5713 10.4827C13.7885 10.4827 14.0234 10.4866 14.2406 10.5221C14.7955 10.6111 15.1702 11.1183 15.0778 11.6529C14.9856 12.1875 14.4508 12.5493 13.9066 12.46C13.798 12.443 13.6787 12.4483 13.5713 12.4483C9.45668 12.4483 6.10714 15.6809 6.10714 19.6551V23.3109C6.10714 26.4768 4.66982 29.4723 2.16742 31.5281C2.14704 31.5439 2.1294 31.5583 2.10753 31.5727C2.071 31.6173 2.03571 31.6855 2.03571 31.7759C2.03571 31.954 2.19053 32.1034 2.37492 32.1034H24.7678C24.9524 32.1034 25.1072 31.954 25.1072 31.7759C25.1072 31.684 25.0719 31.6173 25.0339 31.5727C25.0135 31.5583 24.9959 31.5439 24.9755 31.5281C22.4716 29.4709 21.0358 26.4768 21.0358 23.3109V21.8828C21.0358 21.3404 21.4918 20.9001 22.0537 20.9001C22.6155 20.9001 23.0715 21.3404 23.0715 21.8828V23.3109C23.0715 25.8623 24.2129 28.2785 26.2078 29.9584C26.2444 29.982 26.2796 30.0069 26.3122 30.0345C26.8403 30.4695 27.1429 31.1048 27.1429 31.7759C27.1429 33.0404 26.0776 34.069 24.7678 34.069Z" fill="#F8BB10"/>
<path d="M27.1435 20.9655C21.1568 20.9655 16.2861 16.2632 16.2861 10.483C16.2861 4.70268 21.1568 0 27.1435 0C33.1302 0 38.0004 4.70268 38.0004 10.483C38.0004 16.2632 33.1302 20.9655 27.1435 20.9655ZM27.1435 3.14485C22.9523 3.14485 19.5433 6.43634 19.5433 10.483C19.5433 14.5292 22.9523 17.8207 27.1435 17.8207C31.3342 17.8207 34.7433 14.5292 34.7433 10.483C34.7433 6.43634 31.3342 3.14485 27.1435 3.14485Z" fill="#F8BB10"/>
</svg>
