<svg width="18" height="18" viewBox="0 0 18 18" fill="none" xmlns="http://www.w3.org/2000/svg">
<path d="M17.2994 5.51251C16.8477 4.43678 16.1906 3.45902 15.3647 2.63372C14.5413 1.80698 13.5632 1.14968 12.4859 0.699125C11.3823 0.235327 10.1965 -0.00241543 8.99906 1.85009e-05H8.95879C7.74083 0.00604528 6.56312 0.247116 5.45386 0.721223C4.38581 1.1764 3.41687 1.83487 2.6012 2.65984C1.78331 3.48328 1.13374 4.45763 0.688683 5.52858C0.22669 6.64226 -0.00740307 7.8369 0.00017843 9.0422C0.00621795 10.4364 0.340405 11.8205 0.964488 13.058V16.1116C0.964488 16.6219 1.3792 17.0357 1.88853 17.0357H4.94453C6.19043 17.6631 7.56529 17.9932 8.96081 18H9.00308C10.207 18 11.3726 17.767 12.4718 17.3109C13.5436 16.8658 14.5181 16.2161 15.3406 15.3984C16.17 14.5768 16.8222 13.6165 17.2792 12.5458C17.7523 11.4368 17.9939 10.2576 18 9.04019C18.004 7.81675 17.7664 6.62948 17.2994 5.51251ZM4.98077 9.96429C4.44929 9.96429 4.01646 9.53237 4.01646 9.00001C4.01646 8.46764 4.44929 8.03572 4.98077 8.03572C5.51224 8.03572 5.94508 8.46764 5.94508 9.00001C5.94508 9.53237 5.51426 9.96429 4.98077 9.96429ZM8.99906 9.96429C8.46758 9.96429 8.03475 9.53237 8.03475 9.00001C8.03475 8.46764 8.46758 8.03572 8.99906 8.03572C9.53054 8.03572 9.96337 8.46764 9.96337 9.00001C9.96337 9.53237 9.53054 9.96429 8.99906 9.96429ZM13.0173 9.96429C12.4859 9.96429 12.053 9.53237 12.053 9.00001C12.053 8.46764 12.4859 8.03572 13.0173 8.03572C13.5488 8.03572 13.9817 8.46764 13.9817 9.00001C13.9817 9.53237 13.5488 9.96429 13.0173 9.96429Z" fill="#D41E21"/>
</svg>
