<svg width="40" height="40" viewBox="0 0 40 40" fill="none" xmlns="http://www.w3.org/2000/svg">
<circle opacity="0.5" cx="20" cy="20" r="20" fill="#D9D9D9"/>
<path d="M27.6494 16.3994L24.6006 13.3506C24.46 13.21 24.2875 13.1069 24.1 13.0506V13H13.6C13.2681 13 13 13.2681 13 13.6V27.4C13 27.7319 13.2681 28 13.6 28H27.4C27.7319 28 28 27.7319 28 27.4V17.2469C28 16.9281 27.8744 16.6244 27.6494 16.3994ZM18.1 14.35H22.9V16.3H18.1V14.35ZM26.65 26.65H14.35V14.35H16.9V16.9C16.9 17.2319 17.1681 17.5 17.5 17.5H23.5C23.8319 17.5 24.1 17.2319 24.1 16.9V14.7588L26.65 17.3088V26.65ZM20.5 19.1875C19.0094 19.1875 17.8 20.3969 17.8 21.8875C17.8 23.3781 19.0094 24.5875 20.5 24.5875C21.9906 24.5875 23.2 23.3781 23.2 21.8875C23.2 20.3969 21.9906 19.1875 20.5 19.1875ZM20.5 23.3875C19.6713 23.3875 19 22.7163 19 21.8875C19 21.0588 19.6713 20.3875 20.5 20.3875C21.3288 20.3875 22 21.0588 22 21.8875C22 22.7163 21.3288 23.3875 20.5 23.3875Z" fill="#1B2074"/>
</svg>
