<svg width="40" height="40" viewBox="0 0 40 40" fill="none" xmlns="http://www.w3.org/2000/svg">
<circle opacity="0.5" cx="20" cy="20" r="20" fill="#D9D9D9"/>
<path fill-rule="evenodd" clip-rule="evenodd" d="M16.25 18.6V16.5C16.25 15.5717 16.6451 14.6815 17.3483 14.0251C18.0516 13.3687 19.0054 13 20 13C20.9946 13 21.9484 13.3687 22.6517 14.0251C23.3549 14.6815 23.75 15.5717 23.75 16.5C23.75 16.885 23.4125 17.2 23 17.2C22.5875 17.2 22.25 16.885 22.25 16.5C22.25 15.943 22.0129 15.4089 21.591 15.0151C21.169 14.6212 20.5967 14.4 20 14.4C19.4033 14.4 18.831 14.6212 18.409 15.0151C17.9871 15.4089 17.75 15.943 17.75 16.5V18.6H24.5C24.8978 18.6 25.2794 18.7475 25.5607 19.0101C25.842 19.2726 26 19.6287 26 20V25.6C26 25.9713 25.842 26.3274 25.5607 26.5899C25.2794 26.8525 24.8978 27 24.5 27H15.5C15.1022 27 14.7206 26.8525 14.4393 26.5899C14.158 26.3274 14 25.9713 14 25.6V20C14 19.6287 14.158 19.2726 14.4393 19.0101C14.7206 18.7475 15.1022 18.6 15.5 18.6H16.25ZM15.5 20V25.6H24.5V20H15.5ZM21.5 21.4H23V24.2H21.5V21.4Z" fill="#1B2074"/>
<path fill-rule="evenodd" clip-rule="evenodd" d="M16.25 18.6V16.5C16.25 15.5717 16.6451 14.6815 17.3483 14.0251C18.0516 13.3687 19.0054 13 20 13C20.9946 13 21.9484 13.3687 22.6517 14.0251C23.3549 14.6815 23.75 15.5717 23.75 16.5C23.75 16.885 23.4125 17.2 23 17.2C22.5875 17.2 22.25 16.885 22.25 16.5C22.25 15.943 22.0129 15.4089 21.591 15.0151C21.169 14.6212 20.5967 14.4 20 14.4C19.4033 14.4 18.831 14.6212 18.409 15.0151C17.9871 15.4089 17.75 15.943 17.75 16.5V18.6H24.5C24.8978 18.6 25.2794 18.7475 25.5607 19.0101C25.842 19.2726 26 19.6287 26 20V25.6C26 25.9713 25.842 26.3274 25.5607 26.5899C25.2794 26.8525 24.8978 27 24.5 27H15.5C15.1022 27 14.7206 26.8525 14.4393 26.5899C14.158 26.3274 14 25.9713 14 25.6V20C14 19.6287 14.158 19.2726 14.4393 19.0101C14.7206 18.7475 15.1022 18.6 15.5 18.6H16.25ZM15.5 20V25.6H24.5V20H15.5ZM21.5 21.4H23V24.2H21.5V21.4Z" fill="#1B2074"/>
</svg>
