<svg width="101" height="100" viewBox="0 0 101 100" fill="none" xmlns="http://www.w3.org/2000/svg">
<ellipse cx="50.5" cy="50" rx="50.5" ry="50" fill="#1B2074"/>
<path d="M35.088 56V39.08H41.784C43.608 39.08 45 39.504 45.96 40.352C46.936 41.2 47.424 42.408 47.424 43.976C47.424 45.224 47.08 46.248 46.392 47.048C45.72 47.848 44.76 48.368 43.512 48.608C44.248 48.864 44.88 49.488 45.408 50.48L48.384 56H46.224L43.296 50.576C42.928 49.904 42.504 49.448 42.024 49.208C41.544 48.968 40.912 48.848 40.128 48.848H37.056V56H35.088ZM37.056 47.288H41.496C44.152 47.288 45.48 46.184 45.48 43.976C45.48 41.8 44.152 40.712 41.496 40.712H37.056V47.288ZM58.7535 56.216C56.0335 56.216 53.9615 55.448 52.5375 53.912C51.1135 52.376 50.4015 50.256 50.4015 47.552C50.4015 45.76 50.7215 44.216 51.3615 42.92C52.0015 41.624 52.9215 40.624 54.1215 39.92C55.3215 39.216 56.7695 38.864 58.4655 38.864C59.6655 38.864 60.7695 39.048 61.7775 39.416C62.7855 39.768 63.6415 40.288 64.3455 40.976L63.5775 42.56C62.8095 41.888 62.0175 41.4 61.2015 41.096C60.3855 40.792 59.4655 40.64 58.4415 40.64C56.5215 40.64 55.0495 41.248 54.0255 42.464C53.0015 43.664 52.4895 45.36 52.4895 47.552C52.4895 49.792 53.0175 51.504 54.0735 52.688C55.1295 53.872 56.7055 54.464 58.8015 54.464C60.1615 54.464 61.4655 54.232 62.7135 53.768V48.752H58.4175V47.192H64.4175V55.016C63.9695 55.256 63.4255 55.464 62.7855 55.64C62.1615 55.816 61.4975 55.952 60.7935 56.048C60.0895 56.16 59.4095 56.216 58.7535 56.216Z" fill="white"/>
</svg>
