<svg width="40" height="40" viewBox="0 0 40 40" fill="none" xmlns="http://www.w3.org/2000/svg">
<circle cx="20" cy="20" r="20" fill="#1B2074"/>
<path d="M11.4758 23.7297V13.8597H15.3818C16.4458 13.8597 17.2578 14.1071 17.8178 14.6017C18.3871 15.0964 18.6718 15.8011 18.6718 16.7157C18.6718 17.4437 18.4711 18.0411 18.0698 18.5077C17.6778 18.9744 17.1178 19.2777 16.3898 19.4177C16.8191 19.5671 17.1878 19.9311 17.4958 20.5097L19.2318 23.7297H17.9718L16.2638 20.5657C16.0491 20.1737 15.8018 19.9077 15.5218 19.7677C15.2418 19.6277 14.8731 19.5577 14.4158 19.5577H12.6238V23.7297H11.4758ZM12.6238 18.6477H15.2138C16.7631 18.6477 17.5378 18.0037 17.5378 16.7157C17.5378 15.4464 16.7631 14.8117 15.2138 14.8117H12.6238V18.6477ZM25.8407 23.8557C24.254 23.8557 23.0454 23.4077 22.2147 22.5117C21.384 21.6157 20.9687 20.3791 20.9687 18.8017C20.9687 17.7564 21.1554 16.8557 21.5287 16.0997C21.902 15.3437 22.4387 14.7604 23.1387 14.3497C23.8387 13.9391 24.6834 13.7337 25.6727 13.7337C26.3727 13.7337 27.0167 13.8411 27.6047 14.0557C28.1927 14.2611 28.692 14.5644 29.1027 14.9657L28.6547 15.8897C28.2067 15.4977 27.7447 15.2131 27.2687 15.0357C26.7927 14.8584 26.256 14.7697 25.6587 14.7697C24.5387 14.7697 23.68 15.1244 23.0827 15.8337C22.4854 16.5337 22.1867 17.5231 22.1867 18.8017C22.1867 20.1084 22.4947 21.1071 23.1107 21.7977C23.7267 22.4884 24.646 22.8337 25.8687 22.8337C26.662 22.8337 27.4227 22.6984 28.1507 22.4277V19.5017H25.6447V18.5917H29.1447V23.1557C28.8834 23.2957 28.566 23.4171 28.1927 23.5197C27.8287 23.6224 27.4414 23.7017 27.0307 23.7577C26.62 23.8231 26.2234 23.8557 25.8407 23.8557Z" fill="white"/>
</svg>
